<svg xmlns="http://www.w3.org/2000/svg" xmlns:xlink="http://www.w3.org/1999/xlink" xmlns:lucid="lucid" width="1481.33" height="1410.5"><g transform="translate(-20 160)" lucid:page-tab-id="0_0"><path d="M560 26a6 6 0 0 1 6-6h148a6 6 0 0 1 6 6v108a6 6 0 0 1-6 6H566a6 6 0 0 1-6-6z" stroke="#5e5e5e" stroke-width="3" fill="#b8f5ed"/><use xlink:href="#a" transform="matrix(1,0,0,1,572,32) translate(33.52469135802469 53.77777777777778)"/><path d="M560 855.5a6 6 0 0 1 6-6h148a6 6 0 0 1 6 6v108a6 6 0 0 1-6 6H566a6 6 0 0 1-6-6z" stroke="#5e5e5e" stroke-width="3" fill="#b8f5ed"/><use xlink:href="#b" transform="matrix(1,0,0,1,572,861.5030909222933) translate(26.672839506172835 53.77777777777778)"/><path d="M500-95c0 22.1-35.82 40-80 40s-80-17.9-80-40 35.82-40 80-40 80 17.9 80 40z" stroke="#5e5e5e" stroke-width="3" fill="#ffeca9"/><use xlink:href="#c" transform="matrix(1,0,0,1,345,-130) translate(37.40740740740741 39.65277777777778)"/><path d="M680-95c0 22.1-35.82 40-80 40s-80-17.9-80-40 35.82-40 80-40 80 17.9 80 40z" stroke="#5e5e5e" stroke-width="3" fill="#ffeca9"/><use xlink:href="#d" transform="matrix(1,0,0,1,525,-130) translate(30.648148148148138 39.65277777777778)"/><path d="M850.67-99.33c0 22.1-35.82 40-80 40-44.2 0-80-17.9-80-40s35.8-40 80-40c44.18 0 80 17.9 80 40z" stroke="#5e5e5e" stroke-width="3" fill="#ffeca9"/><use xlink:href="#e" transform="matrix(1,0,0,1,695.6666666666665,-134.33333333333337) translate(30.648148148148138 39.65277777777778)"/><path d="M1021.33-100c0 22.1-35.8 40-80 40-44.18 0-80-17.9-80-40s35.82-40 80-40c44.2 0 80 17.9 80 40z" stroke="#5e5e5e" stroke-width="3" fill="#ffeca9"/><use xlink:href="#f" transform="matrix(1,0,0,1,866.333333333333,-135) translate(55.925925925925924 39.65277777777778)"/><path d="M200-10c0 22.1-35.82 40-80 40S40 12.1 40-10s35.82-40 80-40 80 17.9 80 40z" stroke="#5e5e5e" stroke-width="3" fill="#ffeca9"/><use xlink:href="#g" transform="matrix(1,0,0,1,45,-45) translate(35.52469135802469 39.65277777777778)"/><path d="M200 80c0 22.1-35.82 40-80 40s-80-17.9-80-40 35.82-40 80-40 80 17.9 80 40z" stroke="#5e5e5e" stroke-width="3" fill="#ffeca9"/><use xlink:href="#h" transform="matrix(1,0,0,1,45,45) translate(51.543209876543216 39.65277777777778)"/><path d="M320-99.33c0 22.1-35.82 40-80 40s-80-17.9-80-40 35.82-40 80-40 80 17.9 80 40z" stroke="#5e5e5e" stroke-width="3" fill="#ffeca9"/><use xlink:href="#i" transform="matrix(1,0,0,1,165,-134.33333333333337) translate(32.41240740740741 26.52777777777778)"/><use xlink:href="#j" transform="matrix(1,0,0,1,165,-134.33333333333337) translate(92.90623456790124 26.52777777777778)"/><use xlink:href="#k" transform="matrix(1,0,0,1,165,-134.33333333333337) translate(21.393888888888885 53.19444444444445)"/><path d="M200 170c0 22.1-35.82 40-80 40s-80-17.9-80-40 35.82-40 80-40 80 17.9 80 40z" stroke="#5e5e5e" stroke-width="3" fill="#ffeca9"/><use xlink:href="#l" transform="matrix(1,0,0,1,45,135) translate(54.660493827160494 39.65277777777778)"/><path d="M919.38-59.06v15a6 6 0 0 1-6 6H826a6 6 0 0 0-6 6V46.5a6 6 0 0 1-6 6h-74" stroke="#5e5e5e" stroke-width="2" fill="none"/><path d="M920.38-59.9v.86h-2v-1.18z" stroke="#5e5e5e" stroke-width=".05" fill="#5e5e5e"/><path d="M724.74 52.5L739 47.86v9.27z" stroke="#5e5e5e" stroke-width="2" fill="#5e5e5e"/><path d="M600-52.5V-36a6 6 0 0 0 6 6h60a6 6 0 0 1 6 6V0" stroke="#5e5e5e" stroke-width="2" fill="none"/><path d="M599.98-53.5H601v1.03h-2v-1.06z" stroke="#5e5e5e" stroke-width=".05" fill="#5e5e5e"/><path d="M672 15.26L667.37 1h9.26z" stroke="#5e5e5e" stroke-width="2" fill="#5e5e5e"/><path d="M420-52.5v29a6 6 0 0 0 6 6h208a6 6 0 0 1 6 6V0" stroke="#5e5e5e" stroke-width="2" fill="none"/><path d="M419.98-53.5H421v1.03h-2v-1.06z" stroke="#5e5e5e" stroke-width=".05" fill="#5e5e5e"/><path d="M640 15.26L635.37 1h9.26z" stroke="#5e5e5e" stroke-width="2" fill="#5e5e5e"/><path d="M240-56.83V-6a6 6 0 0 0 6 6h356.66" stroke="#5e5e5e" stroke-width="2" fill="none"/><path d="M239.98-57.83H241v1.02h-2v-1.06z" stroke="#5e5e5e" stroke-width=".05" fill="#5e5e5e"/><path d="M602.67 15.26L598.03 1h9.27z" stroke="#5e5e5e" stroke-width="2" fill="#5e5e5e"/><path d="M700 1190.5c0 22.1-35.82 40-80 40s-80-17.9-80-40 35.82-40 80-40 80 17.9 80 40z" stroke="#5e5e5e" stroke-width="3" fill="#ffeca9"/><use xlink:href="#m" transform="matrix(1,0,0,1,545,1155.4969090777067) translate(66.38888888888889 39.65277777777778)"/><path d="M360 1008.83c0 22.1-35.82 40-80 40s-80-17.9-80-40 35.82-40 80-40 80 17.9 80 40z" stroke="#5e5e5e" stroke-width="3" fill="#ffeca9"/><use xlink:href="#n" transform="matrix(1,0,0,1,205,973.8276177391235) translate(29.413580246913575 39.65277777777778)"/><path d="M535.43 1190.5c0 22.1-35.8 40-80 40-44.18 0-80-17.9-80-40s35.82-40 80-40c44.2 0 80 17.9 80 40z" stroke="#5e5e5e" stroke-width="3" fill="#ffeca9"/><use xlink:href="#o" transform="matrix(1,0,0,1,380.43307086614163,1155.4969090777067) translate(28.734567901234563 39.65277777777778)"/><path d="M360 1100c0 22.1-35.82 40-80 40s-80-17.9-80-40 35.82-40 80-40 80 17.9 80 40z" stroke="#5e5e5e" stroke-width="3" fill="#ffeca9"/><use xlink:href="#p" transform="matrix(1,0,0,1,205,1065) translate(41.05438271604938 26.52777777777778)"/><use xlink:href="#j" transform="matrix(1,0,0,1,205,1065) translate(84.26425925925926 26.52777777777778)"/><use xlink:href="#q" transform="matrix(1,0,0,1,205,1065) translate(21.393888888888878 53.19444444444445)"/><path d="M455.43 1148v-2a6 6 0 0 1 6-6h44.62a6 6 0 0 0 6-6v-27.5a6 6 0 0 1 6-6h44.62a6 6 0 0 0 6-6v-105" stroke="#5e5e5e" stroke-width="2" fill="none"/><path d="M456.43 1149.03l-.98-.03h-1.02v-1.03h2z" stroke="#5e5e5e" stroke-width=".05" fill="#5e5e5e"/><path d="M568.67 974.24l4.63 14.26h-9.27z" stroke="#5e5e5e" stroke-width="2" fill="#5e5e5e"/><path d="M635.2 468.6a8 8 0 0 1 9.6 0l70.4 52.8a4.5 4.5 0 0 1 0 7.2l-70.4 52.8a8 8 0 0 1-9.6 0l-70.4-52.8a4.5 4.5 0 0 1 0-7.2z" stroke="#5e5e5e" stroke-width="3" fill="#ff8f8f"/><use xlink:href="#r" transform="matrix(1,0,0,1,565,470) translate(38.029691358024685 59.02777777777778)"/><path d="M640 142.5V447" stroke="#333" stroke-width="2" fill="none"/><path d="M641 142.53h-2v-1.03h2z" stroke="#333" stroke-width=".05" fill="#333"/><path d="M640 462.26L635.37 448h9.26z" stroke="#333" stroke-width="2" fill="#333"/><path d="M641 829.5h-2V726.92h2zm0-123.9h-2V585.5h2z" stroke="#333" stroke-width=".05" fill="#333"/><path d="M640 584.5l1-.06v1.1h-2v-1.1z" fill="#333"/><path d="M640 584.48l1.02-.07v1.15H639v-1.14zm-.98 1.02H641v-1.03l-.98.06-.98-.06z" stroke="#333" stroke-width=".05" fill="#333"/><path d="M640 844.77l-4.63-14.27h9.26z" fill="#333"/><path d="M640 848l-6-18.5h12zm-3.26-16.5l3.26 10.03 3.26-10.03z" stroke="#333" stroke-width=".05" fill="#333"/><use xlink:href="#s" transform="matrix(1,0,0,1,637.5308641975308,705.5864492556265) translate(0.004999999999999893 14.222222222222223)"/><path d="M260 440c0 22.1-35.82 40-80 40s-80-17.9-80-40 35.82-40 80-40 80 17.9 80 40z" stroke="#5e5e5e" stroke-width="3" fill="#ffeca9"/><use xlink:href="#m" transform="matrix(1,0,0,1,105,405) translate(66.38888888888889 39.65277777777778)"/><path d="M260 525c0 22.1-35.82 40-80 40s-80-17.9-80-40 35.82-40 80-40 80 17.9 80 40z" stroke="#5e5e5e" stroke-width="3" fill="#ffeca9"/><use xlink:href="#t" transform="matrix(1,0,0,1,105,490) translate(35.5246913580247 39.65277777777778)"/><path d="M260 610c0 22.1-35.82 40-80 40s-80-17.9-80-40 35.82-40 80-40 80 17.9 80 40z" stroke="#5e5e5e" stroke-width="3" fill="#ffeca9"/><use xlink:href="#i" transform="matrix(1,0,0,1,105,575) translate(9.074074074074076 39.65277777777778)"/><use xlink:href="#u" transform="matrix(1,0,0,1,105,575) translate(69.5679012345679 39.65277777777778)"/><path d="M260 350c0 22.1-35.82 40-80 40s-80-17.9-80-40 35.82-40 80-40 80 17.9 80 40z" stroke="#5e5e5e" stroke-width="3" fill="#ffeca9"/><use xlink:href="#v" transform="matrix(1,0,0,1,105,315) translate(21.980308641975313 26.52777777777778)"/><use xlink:href="#w" transform="matrix(1,0,0,1,105,315) translate(103.33833333333334 26.52777777777778)"/><use xlink:href="#x" transform="matrix(1,0,0,1,105,315) translate(42.96796296296296 53.19444444444445)"/><path d="M260 695c0 22.1-35.82 40-80 40s-80-17.9-80-40 35.82-40 80-40 80 17.9 80 40z" stroke="#5e5e5e" stroke-width="3" fill="#ffeca9"/><use xlink:href="#y" transform="matrix(1,0,0,1,105,660) translate(24.506172839506178 39.65277777777778)"/><use xlink:href="#z" transform="matrix(1,0,0,1,105,660) translate(75.06172839506173 39.65277777777778)"/><path d="M260 780c0 22.1-35.82 40-80 40s-80-17.9-80-40 35.82-40 80-40 80 17.9 80 40z" stroke="#5e5e5e" stroke-width="3" fill="#ffeca9"/><use xlink:href="#y" transform="matrix(1,0,0,1,105,745) translate(38.02469135802469 39.65277777777778)"/><use xlink:href="#A" transform="matrix(1,0,0,1,105,745) translate(88.58024691358025 39.65277777777778)"/><path d="M260 865c0 22.1-35.82 40-80 40s-80-17.9-80-40 35.82-40 80-40 80 17.9 80 40z" stroke="#5e5e5e" stroke-width="3" fill="#ffeca9"/><use xlink:href="#v" transform="matrix(1,0,0,1,105,830) translate(21.980308641975313 26.52777777777778)"/><use xlink:href="#w" transform="matrix(1,0,0,1,105,830) translate(103.33833333333334 26.52777777777778)"/><use xlink:href="#B" transform="matrix(1,0,0,1,105,830) translate(33.67783950617283 53.19444444444445)"/><path d="M260.34 340.42H424a6 6 0 0 1 6 6V424a6 6 0 0 0 6 6h172.65a6 6 0 0 1 6 6v27.64" stroke="#5e5e5e" stroke-width="2" fill="none"/><path d="M260.37 341.42h-.6l-.6-1.4-.32-.6h1.5z" stroke="#5e5e5e" stroke-width=".05" fill="#5e5e5e"/><path d="M614.65 478.9L610 464.64h9.28z" stroke="#5e5e5e" stroke-width="2" fill="#5e5e5e"/><path d="M262.5 440H424a6 6 0 0 1 6 6v35.14a6 6 0 0 0 6 6h151.14" stroke="#5e5e5e" stroke-width="2" fill="none"/><path d="M262.53 441h-1.06l.03-.98v-.22l-.03-.8h1.06z" stroke="#5e5e5e" stroke-width=".05" fill="#5e5e5e"/><path d="M595.88 492.46l-14.6-3.46 4.83-7.92z" stroke="#5e5e5e" stroke-width="2" fill="#5e5e5e"/><path d="M251.56 504v-33a6 6 0 0 1 6-6h103.22a6 6 0 0 1 6 6v28a6 6 0 0 0 6 6H565.1" stroke="#5e5e5e" stroke-width="2" fill="none"/><path d="M252.56 506l-1-1-1-.86V504h2z" stroke="#5e5e5e" stroke-width=".05" fill="#5e5e5e"/><path d="M578.8 506.3l-14.65 3.28.87-9.23z" stroke="#5e5e5e" stroke-width="2" fill="#5e5e5e"/><path d="M262.5 610h301.83a6 6 0 0 0 6-6v-50.88" stroke="#5e5e5e" stroke-width="2" fill="none"/><path d="M262.53 611h-1.06l.03-.98v-.22l-.03-.8h1.06z" stroke="#5e5e5e" stroke-width=".05" fill="#5e5e5e"/><path d="M570.33 537.86l4.63 14.26h-9.27z" stroke="#5e5e5e" stroke-width="2" fill="#5e5e5e"/><path d="M612.3 644.04l-.1 1.06-.25 1.06-.42 1.02-.58.94-.7.83-.85.72-.93.57-1.02.42-1.07.26-1.05.08h-201.9l-.82.07-.75.18-.73.3-.66.4-.6.52-.5.6-.42.66-.3.73-.18.76-.07.82v48l-.1 1.06-.25 1.06-.42 1.02-.57.94-.7.83-.85.72-.93.57-1 .42-1.08.26-1.07.08h-101.9l-.8.07-.77.18-.73.3-.67.4-.6.52-.5.6-.4.66-.3.73-.2.76-.06.82v58l-.08 1.06-.26 1.06-.42 1.02-.57.94-.72.83-.83.72-.94.57-1.02.42-1.06.26-1.06.08H262.5v-2h14.96l.82-.07.76-.18.73-.3.67-.4.6-.52.5-.6.4-.66.3-.73.2-.76.06-.82v-58l.08-1.06.26-1.06.42-1.02.57-.94.72-.83.83-.72.94-.57 1.02-.42 1.06-.26 1.06-.08h101.9l.8-.07.78-.18.72-.3.67-.4.6-.52.5-.6.42-.66.3-.73.18-.76.06-.82v-48l.08-1.06.25-1.06.42-1.02.58-.94.7-.83.85-.72.93-.57 1.03-.42 1.07-.26 1.05-.08h201.9l.82-.07.76-.18.72-.3.67-.4.6-.52.5-.6.42-.66.3-.73.18-.76.07-.82v-60.12h2z" stroke="#5e5e5e" stroke-width=".05" fill="#5e5e5e"/><path d="M262.53 781h-1.06l.03-.98v-.22l-.03-.8h1.06z" fill="#5e5e5e"/><path d="M262.55 781.02h-1.1l.03-1v-.22l-.04-.82h1.1zm-1.06-2l.02.78v.22l-.02.96h1V779z" stroke="#5e5e5e" stroke-width=".05" fill="#5e5e5e"/><path d="M615.92 582.84h-9.27l4.64-14.26z" fill="#5e5e5e"/><path d="M617.3 583.84h-12.03l6.02-18.5zm-9.27-2h6.5l-3.24-10.03z" stroke="#5e5e5e" stroke-width=".05" fill="#5e5e5e"/><path d="M262.5 695h15a6 6 0 0 0 6-6v-3a6 6 0 0 1 6-6H364a6 6 0 0 0 6-6v-38a6 6 0 0 1 6-6h208.8a6 6 0 0 0 6-6v-55.52" stroke="#5e5e5e" stroke-width="2" fill="none"/><path d="M262.53 696h-1.06l.03-.98v-.22l-.03-.8h1.06z" stroke="#5e5e5e" stroke-width=".05" fill="#5e5e5e"/><path d="M590.8 553.22l4.64 14.26h-9.27z" stroke="#5e5e5e" stroke-width="2" fill="#5e5e5e"/><path d="M624.24 688.7l-.1 1.05-.24 1.07-.42 1-.58.95-.7.83-.85.72-.94.57-1 .4-1.07.27-1.06.08H416.04l-.82.07-.76.18-.73.3-.67.4-.6.52-.5.6-.4.66-.3.73-.2.77-.06.82v93.34l-.08 1.06-.26 1.06-.42 1.02-.57.94-.72.83-.83.72-.94.57-1.02.42-1.06.26-1.06.08h-117.4l-.82.07-.76.18-.73.3-.66.4-.6.52-.5.6-.42.66-.3.73-.18.76-.07.82v41.93l-.08 1.06-.26 1.07-.42 1-.57.95-.7.84-.85.7-.94.57-1 .42-1.08.25-1.06.08H259.6v-2h14.96l.82-.06.77-.18.72-.3.67-.42.6-.5.5-.6.42-.68.3-.72.18-.76.06-.83v-41.94l.1-1.06.24-1.06.42-1.02.58-.94.7-.83.85-.72.92-.57 1.02-.42 1.07-.26 1.06-.08h117.4l.82-.07.76-.18.73-.3.67-.4.6-.52.5-.6.4-.66.3-.73.2-.76.06-.82V700.6l.08-1.05.26-1.06.42-1.03.57-.94.72-.83.83-.72.94-.57 1.02-.4 1.06-.27 1.06-.08H617.2l.82-.06.76-.2.72-.3.67-.4.6-.52.5-.6.42-.66.3-.72.17-.77.07-.82v-95.8h2z" stroke="#5e5e5e" stroke-width=".05" fill="#5e5e5e"/><path d="M259.63 854.93h-.5l-.75-1.42-.34-.57h1.6z" fill="#5e5e5e"/><path d="M259.65 854.96h-.54l-.74-1.44-.37-.6h1.65zm-1.57-2l.33.54.74 1.4h.46v-1.94z" stroke="#5e5e5e" stroke-width=".05" fill="#5e5e5e"/><path d="M627.87 591.8h-9.27l4.64-14.26z" fill="#5e5e5e"/><path d="M629.25 592.8h-12.03l6.02-18.5zm-9.27-2h6.5l-3.24-10.03z" stroke="#5e5e5e" stroke-width=".05" fill="#5e5e5e"/><path d="M360 1190.5c0 22.1-35.82 40-80 40s-80-17.9-80-40 35.82-40 80-40 80 17.9 80 40z" stroke="#5e5e5e" stroke-width="3" fill="#ffeca9"/><use xlink:href="#C" transform="matrix(1,0,0,1,205,1155.4969090777067) translate(38.641975308641975 39.65277777777778)"/><path d="M328.78 1156.22v-.22a6 6 0 0 1 6-6h71.76a6 6 0 0 0 6-6v-58a6 6 0 0 1 6-6H484a6 6 0 0 0 6-6V956.17a6 6 0 0 1 6-6h44" stroke="#5e5e5e" stroke-width="2" fill="none"/><path d="M329.78 1157.58l-2-.72v-.67h2z" stroke="#5e5e5e" stroke-width=".05" fill="#5e5e5e"/><path d="M555.26 950.17L541 954.8v-9.26z" stroke="#5e5e5e" stroke-width="2" fill="#5e5e5e"/><path d="M362.5 1100h15a6 6 0 0 0 6-6v-38a6 6 0 0 1 6-6H454a6 6 0 0 0 6-6V915.5a6 6 0 0 1 6-6h74" stroke="#5e5e5e" stroke-width="2" fill="none"/><path d="M362.53 1101h-1.06l.03-.98v-.22l-.03-.8h1.06z" stroke="#5e5e5e" stroke-width=".05" fill="#5e5e5e"/><path d="M555.26 909.5L541 914.14v-9.27z" stroke="#5e5e5e" stroke-width="2" fill="#5e5e5e"/><path d="M1101.33 86a6 6 0 0 1 6-6h148a6 6 0 0 1 6 6v108a6 6 0 0 1-6 6h-148a6 6 0 0 1-6-6z" stroke="#5e5e5e" stroke-width="3" fill="#b8f5ed"/><use xlink:href="#D" transform="matrix(1,0,0,1,1113.333333333333,92) translate(22.382716049382708 53.77777777777778)"/><path d="M1080 966a6 6 0 0 1 6-6h148a6 6 0 0 1 6 6v108a6 6 0 0 1-6 6h-148a6 6 0 0 1-6-6z" stroke="#5e5e5e" stroke-width="3" fill="#b8f5ed"/><use xlink:href="#E" transform="matrix(1,0,0,1,1092,972) translate(37.19753086419753 53.77777777777778)"/><path d="M1080 575.5a6 6 0 0 1 6-6h148a6 6 0 0 1 6 6v108a6 6 0 0 1-6 6h-148a6 6 0 0 1-6-6z" stroke="#5e5e5e" stroke-width="3" fill="#b8f5ed"/><use xlink:href="#F" transform="matrix(1,0,0,1,1092,581.5030909222933) translate(31.641975308641975 53.77777777777778)"/><path d="M1481.33 80c0 22.1-35.8 40-80 40-44.18 0-80-17.9-80-40s35.82-40 80-40c44.2 0 80 17.9 80 40z" stroke="#5e5e5e" stroke-width="3" fill="#ffeca9"/><use xlink:href="#m" transform="matrix(1,0,0,1,1326.333333333333,45) translate(66.38888888888889 39.65277777777778)"/><path d="M1481.33 170.84c0 22.1-35.8 40-80 40-44.18 0-80-17.9-80-40s35.82-40 80-40c44.2 0 80 17.9 80 40z" stroke="#5e5e5e" stroke-width="3" fill="#ffeca9"/><use xlink:href="#c" transform="matrix(1,0,0,1,1326.333333333333,135.8346456692916) translate(37.40740740740741 39.65277777777778)"/><path d="M1150.67 1160c0 22.1-35.82 40-80 40-44.2 0-80-17.9-80-40s35.8-40 80-40c44.18 0 80 17.9 80 40z" stroke="#5e5e5e" stroke-width="3" fill="#ffeca9"/><use xlink:href="#m" transform="matrix(1,0,0,1,995.6666666666665,1125) translate(66.38888888888889 39.65277777777778)"/><path d="M1332 1161.67c0 22.1-35.82 40-80 40s-80-17.9-80-40 35.82-40 80-40 80 17.9 80 40z" stroke="#5e5e5e" stroke-width="3" fill="#ffeca9"/><use xlink:href="#c" transform="matrix(1,0,0,1,1176.9999999999995,1126.6692913385832) translate(37.40740740740741 39.65277777777778)"/><path d="M1480 520c0 22.1-35.82 40-80 40s-80-17.9-80-40 35.82-40 80-40 80 17.9 80 40z" stroke="#5e5e5e" stroke-width="3" fill="#ffeca9"/><use xlink:href="#m" transform="matrix(1,0,0,1,1325,485) translate(66.38888888888889 39.65277777777778)"/><path d="M1480 610.84c0 22.1-35.82 40-80 40s-80-17.9-80-40 35.82-40 80-40 80 17.9 80 40z" stroke="#5e5e5e" stroke-width="3" fill="#ffeca9"/><use xlink:href="#c" transform="matrix(1,0,0,1,1325,575.8346456692916) translate(37.40740740740741 39.65277777777778)"/><path d="M1480 701.67c0 22.1-35.82 40-80 40s-80-17.9-80-40 35.82-40 80-40 80 17.9 80 40z" stroke="#5e5e5e" stroke-width="3" fill="#ffeca9"/><use xlink:href="#G" transform="matrix(1,0,0,1,1325,666.6692913385832) translate(44.19753086419753 39.65277777777778)"/><path d="M895.2 205.02a8 8 0 0 1 9.6 0l70.4 52.8a4.5 4.5 0 0 1 0 7.2l-70.4 52.8a8 8 0 0 1-9.6 0l-70.4-52.8a4.5 4.5 0 0 1 0-7.2z" stroke="#5e5e5e" stroke-width="3" fill="#ff8f8f"/><use xlink:href="#H" transform="matrix(1,0,0,1,825,206.41732283464557) translate(17.0729012345679 59.02777777777778)"/><use xlink:href="#I" transform="matrix(1,0,0,1,825,206.41732283464557) translate(100.90006172839507 59.02777777777778)"/><path d="M722.5 883.16h43a6 6 0 0 0 6-6V267.42a6 6 0 0 1 6-6H803" stroke="#5e5e5e" stroke-width="2" fill="none"/><path d="M722.53 884.16h-1.03v-2h1.03z" stroke="#5e5e5e" stroke-width=".05" fill="#5e5e5e"/><path d="M818.26 261.42L804 266.05v-9.27z" stroke="#5e5e5e" stroke-width="2" fill="#5e5e5e"/><path d="M942 230.04V146a6 6 0 0 1 6-6h133.33" stroke="#5e5e5e" stroke-width="2" fill="none"/><path d="M943 231.8l-2-1.5v-.3h2z" stroke="#5e5e5e" stroke-width=".05" fill="#5e5e5e"/><path d="M1096.6 140l-14.27 4.63v-9.26z" stroke="#5e5e5e" stroke-width="2" fill="#5e5e5e"/><path d="M202.5-10h15a6 6 0 0 1 6 6v18a6 6 0 0 0 6 6H374a6 6 0 0 1 6 6v13.16a6 6 0 0 0 6 6h154" stroke="#5e5e5e" stroke-width="2" fill="none"/><path d="M202.53-9h-1.06l.03-.98v-.22l-.03-.8h1.06z" stroke="#5e5e5e" stroke-width=".05" fill="#5e5e5e"/><path d="M555.26 45.16L541 49.8v-9.27z" stroke="#5e5e5e" stroke-width="2" fill="#5e5e5e"/><path d="M202.5 80H540" stroke="#5e5e5e" stroke-width="2" fill="none"/><path d="M202.53 81h-1.06l.03-.98v-.22l-.03-.8h1.06z" stroke="#5e5e5e" stroke-width=".05" fill="#5e5e5e"/><path d="M555.26 80L541 84.64v-9.28z" stroke="#5e5e5e" stroke-width="2" fill="#5e5e5e"/><path d="M905.87 503.6a8 8 0 0 1 9.6 0l70.4 52.8a4.5 4.5 0 0 1 0 7.2l-70.4 52.8a8 8 0 0 1-9.6 0l-70.4-52.8a4.5 4.5 0 0 1 0-7.2z" stroke="#5e5e5e" stroke-width="3" fill="#ff8f8f"/><use xlink:href="#J" transform="matrix(1,0,0,1,835.6666666666665,505) translate(29.35685185185185 59.02777777777778)"/><use xlink:href="#K" transform="matrix(1,0,0,1,835.6666666666665,505) translate(72.56672839506173 59.02777777777778)"/><path d="M1154.9 783.18a9.6 9.6 0 0 1 10.2 0l69.8 43.64a3.75 3.75 0 0 1 0 6.36l-69.8 43.64a9.6 9.6 0 0 1-10.2 0l-69.8-43.64a3.75 3.75 0 0 1 0-6.36z" stroke="#5e5e5e" stroke-width="3" fill="#ff8f8f"/><use xlink:href="#L" transform="matrix(1,0,0,1,1085,785) translate(29.387716049382707 41.78777777777778)"/><use xlink:href="#I" transform="matrix(1,0,0,1,1085,785) translate(58.98648148148148 68.45444444444445)"/><path d="M722.5 943.16h143.32a6 6 0 0 0 6-6V611.24" stroke="#5e5e5e" stroke-width="2" fill="none"/><path d="M722.53 944.16h-1.03v-2h1.03z" stroke="#5e5e5e" stroke-width=".05" fill="#5e5e5e"/><path d="M871.82 595.98l4.63 14.26h-9.27z" stroke="#5e5e5e" stroke-width="2" fill="#5e5e5e"/><path d="M953.3 529.1v-33a6 6 0 0 1 6-6H1154a6 6 0 0 1 6 6v53.4" stroke="#5e5e5e" stroke-width="2" fill="none"/><path d="M954.3 530.85l-2-1.5v-.28h2z" stroke="#5e5e5e" stroke-width=".05" fill="#5e5e5e"/><path d="M1160 564.77l-4.63-14.27h9.27z" stroke="#5e5e5e" stroke-width="2" fill="#5e5e5e"/><path d="M1160 692v69.72" stroke="#5e5e5e" stroke-width="2" fill="none"/><path d="M1161 692.03h-2V691h2z" stroke="#5e5e5e" stroke-width=".05" fill="#5e5e5e"/><path d="M1160 776.98l-4.63-14.26h9.27z" stroke="#5e5e5e" stroke-width="2" fill="#5e5e5e"/><path d="M1161 940h-2v-10.2h2zm0-31.53h-2v-27.7h2z" stroke="#5e5e5e" stroke-width=".05" fill="#5e5e5e"/><path d="M1160 879.78l1-.05v1.08h-2v-1.07z" fill="#5e5e5e"/><path d="M1160 879.76l1.03-.06v1.13h-2.06v-1.13zm-.97 1.02h1.94v-1.03l-.97.06-.97-.05z" stroke="#5e5e5e" stroke-width=".05" fill="#5e5e5e"/><path d="M1160 955.26l-4.63-14.26h9.27z" fill="#5e5e5e"/><path d="M1160 958.5l-6-18.5h12zm-3.26-16.5l3.26 10.03 3.26-10.03z" stroke="#5e5e5e" stroke-width=".05" fill="#5e5e5e"/><g><use xlink:href="#M" transform="matrix(1,0,0,1,1151.6049382716049,908.4741334562456) translate(0.005000000000000782 14.222222222222223)"/></g><defs><path fill="#333" d="M212-179c-10-28-35-45-73-45-59 0-87 40-87 99 0 60 29 101 89 101 43 0 62-24 78-52l27 14C228-24 195 4 139 4 59 4 22-46 18-125c-6-104 99-153 187-111 19 9 31 26 39 46" id="N"/><path fill="#333" d="M24 0v-261h32V0H24" id="O"/><path fill="#333" d="M24-231v-30h32v30H24zM24 0v-190h32V0H24" id="P"/><path fill="#333" d="M100-194c63 0 86 42 84 106H49c0 40 14 67 53 68 26 1 43-12 49-29l28 8c-11 28-37 45-77 45C44 4 14-33 15-96c1-61 26-98 85-98zm52 81c6-60-76-77-97-28-3 7-6 17-6 28h103" id="Q"/><path fill="#333" d="M117-194c89-4 53 116 60 194h-32v-121c0-31-8-49-39-48C34-167 62-67 57 0H25l-1-190h30c1 10-1 24 2 32 11-22 29-35 61-36" id="R"/><path fill="#333" d="M59-47c-2 24 18 29 38 22v24C64 9 27 4 27-40v-127H5v-23h24l9-43h21v43h35v23H59v120" id="S"/><g id="a"><use transform="matrix(0.06172839506172839,0,0,0.06172839506172839,0,0)" xlink:href="#N"/><use transform="matrix(0.06172839506172839,0,0,0.06172839506172839,15.987654320987653,0)" xlink:href="#O"/><use transform="matrix(0.06172839506172839,0,0,0.06172839506172839,20.864197530864196,0)" xlink:href="#P"/><use transform="matrix(0.06172839506172839,0,0,0.06172839506172839,25.74074074074074,0)" xlink:href="#Q"/><use transform="matrix(0.06172839506172839,0,0,0.06172839506172839,38.08641975308642,0)" xlink:href="#R"/><use transform="matrix(0.06172839506172839,0,0,0.06172839506172839,50.432098765432094,0)" xlink:href="#S"/><use transform="matrix(0.06172839506172839,0,0,0.06172839506172839,56.60493827160494,0)" xlink:href="#Q"/></g><path fill="#333" d="M108 0H70L1-190h34L89-25l56-165h34" id="T"/><path fill="#333" d="M106-169C34-169 62-67 57 0H25v-261h32l-1 103c12-21 28-36 61-36 89 0 53 116 60 194h-32v-121c2-32-8-49-39-48" id="U"/><path fill="#333" d="M34 0v-190h32V0H34zM24-211c8-23 27-35 38-54h36v5l-58 49H24" id="V"/><path fill="#333" d="M96-169c-40 0-48 33-48 73s9 75 48 75c24 0 41-14 43-38l32 2c-6 37-31 61-74 61-59 0-76-41-82-99-10-93 101-131 147-64 4 7 5 14 7 22l-32 3c-4-21-16-35-41-35" id="W"/><path fill="#333" d="M84 4C-5 8 30-112 23-190h32v120c0 31 7 50 39 49 72-2 45-101 50-169h31l1 190h-30c-1-10 1-25-2-33-11 22-28 36-60 37" id="X"/><path fill="#333" d="M100-194c62-1 85 37 85 99 1 63-27 99-86 99S16-35 15-95c0-66 28-99 85-99zM99-20c44 1 53-31 53-75 0-43-8-75-51-75s-53 32-53 75 10 74 51 75" id="Y"/><g id="b"><use transform="matrix(0.06172839506172839,0,0,0.06172839506172839,0,0)" xlink:href="#T"/><use transform="matrix(0.06172839506172839,0,0,0.06172839506172839,11.11111111111111,0)" xlink:href="#Q"/><use transform="matrix(0.06172839506172839,0,0,0.06172839506172839,23.45679012345679,0)" xlink:href="#U"/><use transform="matrix(0.06172839506172839,0,0,0.06172839506172839,35.80246913580247,0)" xlink:href="#V"/><use transform="matrix(0.06172839506172839,0,0,0.06172839506172839,41.97530864197531,0)" xlink:href="#W"/><use transform="matrix(0.06172839506172839,0,0,0.06172839506172839,53.08641975308642,0)" xlink:href="#X"/><use transform="matrix(0.06172839506172839,0,0,0.06172839506172839,65.4320987654321,0)" xlink:href="#O"/><use transform="matrix(0.06172839506172839,0,0,0.06172839506172839,70.30864197530865,0)" xlink:href="#Y"/></g><path fill="#333" d="M210-169c-67 3-38 105-44 169h-31v-121c0-29-5-50-35-48C34-165 62-65 56 0H25l-1-190h30c1 10-1 24 2 32 10-44 99-50 107 0 11-21 27-35 58-36 85-2 47 119 55 194h-31v-121c0-29-5-49-35-48" id="Z"/><path fill="#333" d="M115-194c53 0 69 39 70 98 0 66-23 100-70 100C84 3 66-7 56-30L54 0H23l1-261h32v101c10-23 28-34 59-34zm-8 174c40 0 45-34 45-75 0-40-5-75-45-74-42 0-51 32-51 76 0 43 10 73 51 73" id="aa"/><path fill="#333" d="M114-163C36-179 61-72 57 0H25l-1-190h30c1 12-1 29 2 39 6-27 23-49 58-41v29" id="ab"/><g id="c"><use transform="matrix(0.06172839506172839,0,0,0.06172839506172839,0,0)" xlink:href="#R"/><use transform="matrix(0.06172839506172839,0,0,0.06172839506172839,12.345679012345679,0)" xlink:href="#Y"/><use transform="matrix(0.06172839506172839,0,0,0.06172839506172839,24.691358024691358,0)" xlink:href="#Z"/><use transform="matrix(0.06172839506172839,0,0,0.06172839506172839,43.148148148148145,0)" xlink:href="#aa"/><use transform="matrix(0.06172839506172839,0,0,0.06172839506172839,55.49382716049382,0)" xlink:href="#ab"/><use transform="matrix(0.06172839506172839,0,0,0.06172839506172839,62.8395061728395,0)" xlink:href="#Q"/><path fill="#333" d="M-1.1 1.54h77.4v1.63H-1.1z"/></g><path fill="#333" d="M141-36C126-15 110 5 73 4 37 3 15-17 15-53c-1-64 63-63 125-63 3-35-9-54-41-54-24 1-41 7-42 31l-33-3c5-37 33-52 76-52 45 0 72 20 72 64v82c-1 20 7 32 28 27v20c-31 9-61-2-59-35zM48-53c0 20 12 33 32 33 41-3 63-29 60-74-43 2-92-5-92 41" id="ac"/><path fill="#333" d="M115-194c55 1 70 41 70 98S169 2 115 4C84 4 66-9 55-30l1 105H24l-1-265h31l2 30c10-21 28-34 59-34zm-8 174c40 0 45-34 45-75s-6-73-45-74c-42 0-51 32-51 76 0 43 10 73 51 73" id="ad"/><path fill="#333" d="M85-194c31 0 48 13 60 33l-1-100h32l1 261h-30c-2-10 0-23-3-31C134-8 116 4 85 4 32 4 16-35 15-94c0-66 23-100 70-100zm9 24c-40 0-46 34-46 75 0 40 6 74 45 74 42 0 51-32 51-76 0-42-9-74-50-73" id="ae"/><path fill="#333" d="M27 0v-27h64v-190l-56 39v-29l58-41h29v221h61V0H27" id="af"/><g id="d"><use transform="matrix(0.06172839506172839,0,0,0.06172839506172839,0,0)" xlink:href="#ac"/><use transform="matrix(0.06172839506172839,0,0,0.06172839506172839,12.345679012345679,0)" xlink:href="#ad"/><use transform="matrix(0.06172839506172839,0,0,0.06172839506172839,24.691358024691358,0)" xlink:href="#Q"/><use transform="matrix(0.06172839506172839,0,0,0.06172839506172839,37.03703703703704,0)" xlink:href="#O"/><use transform="matrix(0.06172839506172839,0,0,0.06172839506172839,41.91358024691358,0)" xlink:href="#O"/><use transform="matrix(0.06172839506172839,0,0,0.06172839506172839,46.79012345679013,0)" xlink:href="#P"/><use transform="matrix(0.06172839506172839,0,0,0.06172839506172839,51.66666666666667,0)" xlink:href="#ae"/><use transform="matrix(0.06172839506172839,0,0,0.06172839506172839,64.01234567901236,0)" xlink:href="#Y"/><use transform="matrix(0.06172839506172839,0,0,0.06172839506172839,76.35802469135804,0)" xlink:href="#af"/><path fill="#333" d="M-1.1 1.54H89.8v1.63H-1.1z"/><path d="M87.64 1.48h2.13v1.56h-2.13z"/></g><path fill="#333" d="M101-251c82-7 93 87 43 132L82-64C71-53 59-42 53-27h129V0H18c2-99 128-94 128-182 0-28-16-43-45-43s-46 15-49 41l-32-3c6-41 34-60 81-64" id="ag"/><g id="e"><use transform="matrix(0.06172839506172839,0,0,0.06172839506172839,0,0)" xlink:href="#ac"/><use transform="matrix(0.06172839506172839,0,0,0.06172839506172839,12.345679012345679,0)" xlink:href="#ad"/><use transform="matrix(0.06172839506172839,0,0,0.06172839506172839,24.691358024691358,0)" xlink:href="#Q"/><use transform="matrix(0.06172839506172839,0,0,0.06172839506172839,37.03703703703704,0)" xlink:href="#O"/><use transform="matrix(0.06172839506172839,0,0,0.06172839506172839,41.91358024691358,0)" xlink:href="#O"/><use transform="matrix(0.06172839506172839,0,0,0.06172839506172839,46.79012345679013,0)" xlink:href="#P"/><use transform="matrix(0.06172839506172839,0,0,0.06172839506172839,51.66666666666667,0)" xlink:href="#ae"/><use transform="matrix(0.06172839506172839,0,0,0.06172839506172839,64.01234567901236,0)" xlink:href="#Y"/><use transform="matrix(0.06172839506172839,0,0,0.06172839506172839,76.35802469135804,0)" xlink:href="#ag"/></g><path fill="#333" d="M30-248c118-7 216 8 213 122C240-48 200 0 122 0H30v-248zM63-27c89 8 146-16 146-99s-60-101-146-95v194" id="ah"/><path fill="#333" d="M190 0L58-211 59 0H30v-248h39L202-35l-2-213h31V0h-41" id="ai"/><path fill="#333" d="M33 0v-248h34V0H33" id="aj"/><g id="f"><use transform="matrix(0.06172839506172839,0,0,0.06172839506172839,0,0)" xlink:href="#ah"/><use transform="matrix(0.06172839506172839,0,0,0.06172839506172839,15.987654320987653,0)" xlink:href="#ai"/><use transform="matrix(0.06172839506172839,0,0,0.06172839506172839,31.975308641975307,0)" xlink:href="#aj"/><path fill="#333" d="M-1.1 1.54h40.36v1.63H-1.1z"/></g><path fill="#333" d="M100-194c63 0 86 42 84 106H49c0 40 14 67 53 68 26 1 43-12 49-29l28 8c-11 28-37 45-77 45C44 4 14-33 15-96c1-61 26-98 85-98zm52 81c6-60-76-77-97-28-3 7-6 17-6 28h103zm-74-98c8-23 27-35 38-54h36v5l-58 49H78" id="ak"/><path fill="#333" d="M101-234c-31-9-42 10-38 44h38v23H63V0H32v-167H5v-23h27c-7-52 17-82 69-68v24" id="al"/><g id="g"><use transform="matrix(0.06172839506172839,0,0,0.06172839506172839,0,0)" xlink:href="#S"/><use transform="matrix(0.06172839506172839,0,0,0.06172839506172839,6.172839506172839,0)" xlink:href="#Q"/><use transform="matrix(0.06172839506172839,0,0,0.06172839506172839,18.51851851851852,0)" xlink:href="#O"/><use transform="matrix(0.06172839506172839,0,0,0.06172839506172839,23.395061728395063,0)" xlink:href="#ak"/><use transform="matrix(0.06172839506172839,0,0,0.06172839506172839,35.74074074074074,0)" xlink:href="#al"/><use transform="matrix(0.06172839506172839,0,0,0.06172839506172839,41.91358024691358,0)" xlink:href="#Y"/><use transform="matrix(0.06172839506172839,0,0,0.06172839506172839,54.25925925925926,0)" xlink:href="#R"/><use transform="matrix(0.06172839506172839,0,0,0.06172839506172839,66.60493827160494,0)" xlink:href="#Y"/></g><path fill="#333" d="M135-143c-3-34-86-38-87 0 15 53 115 12 119 90S17 21 10-45l28-5c4 36 97 45 98 0-10-56-113-15-118-90-4-57 82-63 122-42 12 7 21 19 24 35" id="am"/><path fill="#333" d="M141 0L90-78 38 0H4l68-98-65-92h35l48 74 47-74h35l-64 92 68 98h-35" id="an"/><g id="h"><use transform="matrix(0.06172839506172839,0,0,0.06172839506172839,0,0)" xlink:href="#am"/><use transform="matrix(0.06172839506172839,0,0,0.06172839506172839,11.11111111111111,0)" xlink:href="#Q"/><use transform="matrix(0.06172839506172839,0,0,0.06172839506172839,23.45679012345679,0)" xlink:href="#an"/><use transform="matrix(0.06172839506172839,0,0,0.06172839506172839,34.5679012345679,0)" xlink:href="#Y"/></g><g id="i"><use transform="matrix(0.06172839506172839,0,0,0.06172839506172839,0,0)" xlink:href="#al"/><use transform="matrix(0.06172839506172839,0,0,0.06172839506172839,6.172839506172839,0)" xlink:href="#Q"/><use transform="matrix(0.06172839506172839,0,0,0.06172839506172839,18.51851851851852,0)" xlink:href="#W"/><use transform="matrix(0.06172839506172839,0,0,0.06172839506172839,29.62962962962963,0)" xlink:href="#U"/><use transform="matrix(0.06172839506172839,0,0,0.06172839506172839,41.97530864197531,0)" xlink:href="#ac"/></g><g id="j"><use transform="matrix(0.06172839506172839,0,0,0.06172839506172839,0,0)" xlink:href="#ae"/><use transform="matrix(0.06172839506172839,0,0,0.06172839506172839,12.345679012345679,0)" xlink:href="#Q"/></g><g id="k"><use transform="matrix(0.06172839506172839,0,0,0.06172839506172839,0,0)" xlink:href="#R"/><use transform="matrix(0.06172839506172839,0,0,0.06172839506172839,12.345679012345679,0)" xlink:href="#ac"/><use transform="matrix(0.06172839506172839,0,0,0.06172839506172839,24.691358024691358,0)" xlink:href="#W"/><use transform="matrix(0.06172839506172839,0,0,0.06172839506172839,35.80246913580247,0)" xlink:href="#P"/><use transform="matrix(0.06172839506172839,0,0,0.06172839506172839,40.67901234567901,0)" xlink:href="#Z"/><use transform="matrix(0.06172839506172839,0,0,0.06172839506172839,59.1358024691358,0)" xlink:href="#P"/><use transform="matrix(0.06172839506172839,0,0,0.06172839506172839,64.01234567901234,0)" xlink:href="#Q"/><use transform="matrix(0.06172839506172839,0,0,0.06172839506172839,76.35802469135803,0)" xlink:href="#R"/><use transform="matrix(0.06172839506172839,0,0,0.06172839506172839,88.70370370370371,0)" xlink:href="#S"/><use transform="matrix(0.06172839506172839,0,0,0.06172839506172839,94.87654320987654,0)" xlink:href="#Y"/></g><g id="l"><use transform="matrix(0.06172839506172839,0,0,0.06172839506172839,0,0)" xlink:href="#ad"/><use transform="matrix(0.06172839506172839,0,0,0.06172839506172839,12.345679012345679,0)" xlink:href="#ac"/><use transform="matrix(0.06172839506172839,0,0,0.06172839506172839,24.691358024691358,0)" xlink:href="#P"/><use transform="matrix(0.06172839506172839,0,0,0.06172839506172839,29.5679012345679,0)" xlink:href="#am"/></g><g id="m"><use transform="matrix(0.06172839506172839,0,0,0.06172839506172839,0,0)" xlink:href="#P"/><use transform="matrix(0.06172839506172839,0,0,0.06172839506172839,4.876543209876543,0)" xlink:href="#ae"/><path fill="#333" d="M-1.1 1.54h19.43v1.63H-1.1z"/></g><g id="n"><use transform="matrix(0.06172839506172839,0,0,0.06172839506172839,0,0)" xlink:href="#Z"/><use transform="matrix(0.06172839506172839,0,0,0.06172839506172839,18.456790123456788,0)" xlink:href="#ac"/><use transform="matrix(0.06172839506172839,0,0,0.06172839506172839,30.80246913580247,0)" xlink:href="#S"/><use transform="matrix(0.06172839506172839,0,0,0.06172839506172839,36.97530864197531,0)" xlink:href="#ab"/><use transform="matrix(0.06172839506172839,0,0,0.06172839506172839,44.32098765432099,0)" xlink:href="#V"/><use transform="matrix(0.06172839506172839,0,0,0.06172839506172839,50.49382716049383,0)" xlink:href="#W"/><use transform="matrix(0.06172839506172839,0,0,0.06172839506172839,61.60493827160494,0)" xlink:href="#X"/><use transform="matrix(0.06172839506172839,0,0,0.06172839506172839,73.95061728395062,0)" xlink:href="#O"/><use transform="matrix(0.06172839506172839,0,0,0.06172839506172839,78.82716049382717,0)" xlink:href="#ac"/><path fill="#333" d="M-1.1 1.54h93.4v1.63H-1.1z"/></g><path fill="#333" d="M177-190C167-65 218 103 67 71c-23-6-38-20-44-43l32-5c15 47 100 32 89-28v-30C133-14 115 1 83 1 29 1 15-40 15-95c0-56 16-97 71-98 29-1 48 16 59 35 1-10 0-23 2-32h30zM94-22c36 0 50-32 50-73 0-42-14-75-50-75-39 0-46 34-46 75s6 73 46 73" id="ao"/><g id="o"><use transform="matrix(0.06172839506172839,0,0,0.06172839506172839,0,0)" xlink:href="#W"/><use transform="matrix(0.06172839506172839,0,0,0.06172839506172839,11.11111111111111,0)" xlink:href="#ac"/><use transform="matrix(0.06172839506172839,0,0,0.06172839506172839,23.45679012345679,0)" xlink:href="#S"/><use transform="matrix(0.06172839506172839,0,0,0.06172839506172839,29.62962962962963,0)" xlink:href="#Q"/><use transform="matrix(0.06172839506172839,0,0,0.06172839506172839,41.97530864197531,0)" xlink:href="#ao"/><use transform="matrix(0.06172839506172839,0,0,0.06172839506172839,54.32098765432099,0)" xlink:href="#Y"/><use transform="matrix(0.06172839506172839,0,0,0.06172839506172839,66.66666666666667,0)" xlink:href="#ab"/><use transform="matrix(0.06172839506172839,0,0,0.06172839506172839,74.01234567901236,0)" xlink:href="#V"/><use transform="matrix(0.06172839506172839,0,0,0.06172839506172839,80.18518518518519,0)" xlink:href="#ac"/><path fill="#333" d="M-1.1 1.54h94.74v1.63H-1.1z"/></g><path fill="#333" d="M118-194c89-4 53 116 60 194h-32v-121c0-31-8-49-39-48C35-167 63-67 58 0H26l-1-190h30c1 10-1 24 2 32 11-22 29-35 61-36zm47-64c-3 23-9 48-36 47-26-1-65-44-74 0H39c4-23 8-48 36-47s64 44 74 0h16" id="ap"/><g id="p"><use transform="matrix(0.06172839506172839,0,0,0.06172839506172839,0,0)" xlink:href="#ac"/><use transform="matrix(0.06172839506172839,0,0,0.06172839506172839,12.345679012345679,0)" xlink:href="#ap"/><use transform="matrix(0.06172839506172839,0,0,0.06172839506172839,24.691358024691358,0)" xlink:href="#Y"/></g><g id="q"><use transform="matrix(0.06172839506172839,0,0,0.06172839506172839,0,0)" xlink:href="#al"/><use transform="matrix(0.06172839506172839,0,0,0.06172839506172839,6.172839506172839,0)" xlink:href="#ac"/><use transform="matrix(0.06172839506172839,0,0,0.06172839506172839,18.51851851851852,0)" xlink:href="#aa"/><use transform="matrix(0.06172839506172839,0,0,0.06172839506172839,30.864197530864196,0)" xlink:href="#ab"/><use transform="matrix(0.06172839506172839,0,0,0.06172839506172839,38.20987654320987,0)" xlink:href="#P"/><use transform="matrix(0.06172839506172839,0,0,0.06172839506172839,43.08641975308642,0)" xlink:href="#W"/><use transform="matrix(0.06172839506172839,0,0,0.06172839506172839,54.19753086419753,0)" xlink:href="#ac"/><use transform="matrix(0.06172839506172839,0,0,0.06172839506172839,66.54320987654322,0)" xlink:href="#W"/><use transform="matrix(0.06172839506172839,0,0,0.06172839506172839,77.65432098765433,0)" xlink:href="#P"/><use transform="matrix(0.06172839506172839,0,0,0.06172839506172839,82.53086419753087,0)" xlink:href="#Y"/><use transform="matrix(0.06172839506172839,0,0,0.06172839506172839,94.87654320987656,0)" xlink:href="#R"/></g><g id="r"><use transform="matrix(0.06172839506172839,0,0,0.06172839506172839,0,0)" xlink:href="#ab"/><use transform="matrix(0.06172839506172839,0,0,0.06172839506172839,7.345679012345679,0)" xlink:href="#Q"/><use transform="matrix(0.06172839506172839,0,0,0.06172839506172839,19.691358024691358,0)" xlink:href="#am"/><use transform="matrix(0.06172839506172839,0,0,0.06172839506172839,30.80246913580247,0)" xlink:href="#Q"/><use transform="matrix(0.06172839506172839,0,0,0.06172839506172839,43.148148148148145,0)" xlink:href="#ab"/><use transform="matrix(0.06172839506172839,0,0,0.06172839506172839,50.49382716049382,0)" xlink:href="#T"/><use transform="matrix(0.06172839506172839,0,0,0.06172839506172839,61.60493827160494,0)" xlink:href="#ac"/></g><path fill="#333" d="M25 0v-190h50V0H25zm-5-208v-5l45-51h45v8l-60 48H20" id="aq"/><use transform="matrix(0.04938271604938272,0,0,0.04938271604938272,0,0)" xlink:href="#aq" id="s"/><path fill="#333" d="M179-190L93 31C79 59 56 82 12 73V49c39 6 53-20 64-50L1-190h34L92-34l54-156h33" id="ar"/><g id="t"><use transform="matrix(0.06172839506172839,0,0,0.06172839506172839,0,0)" xlink:href="#S"/><use transform="matrix(0.06172839506172839,0,0,0.06172839506172839,6.172839506172839,0)" xlink:href="#ab"/><use transform="matrix(0.06172839506172839,0,0,0.06172839506172839,13.518518518518519,0)" xlink:href="#ac"/><use transform="matrix(0.06172839506172839,0,0,0.06172839506172839,25.864197530864196,0)" xlink:href="#ar"/><use transform="matrix(0.06172839506172839,0,0,0.06172839506172839,36.9753086419753,0)" xlink:href="#Q"/><use transform="matrix(0.06172839506172839,0,0,0.06172839506172839,49.32098765432098,0)" xlink:href="#W"/><use transform="matrix(0.06172839506172839,0,0,0.06172839506172839,60.43209876543209,0)" xlink:href="#S"/><use transform="matrix(0.06172839506172839,0,0,0.06172839506172839,66.60493827160492,0)" xlink:href="#Y"/></g><path fill="#333" d="M145-31C134-9 116 4 85 4 32 4 16-35 15-94c0-59 17-99 70-100 32-1 48 14 60 33 0-11-1-24 2-32h30l-1 268h-32zM93-21c41 0 51-33 51-76s-8-73-50-73c-40 0-46 35-46 75s5 74 45 74" id="as"/><g id="u"><use transform="matrix(0.06172839506172839,0,0,0.06172839506172839,0,0)" xlink:href="#ac"/><use transform="matrix(0.06172839506172839,0,0,0.06172839506172839,12.345679012345679,0)" xlink:href="#O"/><use transform="matrix(0.06172839506172839,0,0,0.06172839506172839,17.22222222222222,0)" xlink:href="#as"/><use transform="matrix(0.06172839506172839,0,0,0.06172839506172839,29.5679012345679,0)" xlink:href="#X"/><use transform="matrix(0.06172839506172839,0,0,0.06172839506172839,41.913580246913575,0)" xlink:href="#P"/><use transform="matrix(0.06172839506172839,0,0,0.06172839506172839,46.79012345679012,0)" xlink:href="#O"/><use transform="matrix(0.06172839506172839,0,0,0.06172839506172839,51.666666666666664,0)" xlink:href="#Q"/><use transform="matrix(0.06172839506172839,0,0,0.06172839506172839,64.01234567901234,0)" xlink:href="#ab"/></g><g id="v"><use transform="matrix(0.06172839506172839,0,0,0.06172839506172839,0,0)" xlink:href="#R"/><use transform="matrix(0.06172839506172839,0,0,0.06172839506172839,12.345679012345679,0)" xlink:href="#X"/><use transform="matrix(0.06172839506172839,0,0,0.06172839506172839,24.691358024691358,0)" xlink:href="#Z"/><use transform="matrix(0.06172839506172839,0,0,0.06172839506172839,43.148148148148145,0)" xlink:href="#Q"/><use transform="matrix(0.06172839506172839,0,0,0.06172839506172839,55.49382716049382,0)" xlink:href="#ab"/><use transform="matrix(0.06172839506172839,0,0,0.06172839506172839,62.8395061728395,0)" xlink:href="#Y"/><path fill="#333" d="M-1.1 1.54h83.57v1.63H-1.1z"/></g><g id="w"><use transform="matrix(0.06172839506172839,0,0,0.06172839506172839,0,0)" xlink:href="#ae"/><use transform="matrix(0.06172839506172839,0,0,0.06172839506172839,12.345679012345679,0)" xlink:href="#Q"/><path fill="#333" d="M-1.1 1.54h26.9v1.63H-1.1z"/></g><g id="x"><use transform="matrix(0.06172839506172839,0,0,0.06172839506172839,0,0)" xlink:href="#W"/><use transform="matrix(0.06172839506172839,0,0,0.06172839506172839,11.11111111111111,0)" xlink:href="#O"/><use transform="matrix(0.06172839506172839,0,0,0.06172839506172839,15.987654320987653,0)" xlink:href="#P"/><use transform="matrix(0.06172839506172839,0,0,0.06172839506172839,20.864197530864196,0)" xlink:href="#Q"/><use transform="matrix(0.06172839506172839,0,0,0.06172839506172839,33.20987654320987,0)" xlink:href="#R"/><use transform="matrix(0.06172839506172839,0,0,0.06172839506172839,45.55555555555555,0)" xlink:href="#S"/><use transform="matrix(0.06172839506172839,0,0,0.06172839506172839,51.72839506172839,0)" xlink:href="#Q"/><path fill="#333" d="M-1.1 1.54h66.3v1.63H-1.1z"/></g><g id="y"><use transform="matrix(0.06172839506172839,0,0,0.06172839506172839,0,0)" xlink:href="#U"/><use transform="matrix(0.06172839506172839,0,0,0.06172839506172839,12.345679012345679,0)" xlink:href="#Y"/><use transform="matrix(0.06172839506172839,0,0,0.06172839506172839,24.691358024691358,0)" xlink:href="#ab"/><use transform="matrix(0.06172839506172839,0,0,0.06172839506172839,32.03703703703704,0)" xlink:href="#ac"/></g><g id="z"><use transform="matrix(0.06172839506172839,0,0,0.06172839506172839,0,0)" xlink:href="#P"/><use transform="matrix(0.06172839506172839,0,0,0.06172839506172839,4.876543209876543,0)" xlink:href="#R"/><use transform="matrix(0.06172839506172839,0,0,0.06172839506172839,17.22222222222222,0)" xlink:href="#P"/><use transform="matrix(0.06172839506172839,0,0,0.06172839506172839,22.098765432098766,0)" xlink:href="#W"/><use transform="matrix(0.06172839506172839,0,0,0.06172839506172839,33.20987654320987,0)" xlink:href="#P"/><use transform="matrix(0.06172839506172839,0,0,0.06172839506172839,38.08641975308642,0)" xlink:href="#Y"/></g><g id="A"><use transform="matrix(0.06172839506172839,0,0,0.06172839506172839,0,0)" xlink:href="#al"/><use transform="matrix(0.06172839506172839,0,0,0.06172839506172839,6.172839506172839,0)" xlink:href="#P"/><use transform="matrix(0.06172839506172839,0,0,0.06172839506172839,11.049382716049383,0)" xlink:href="#R"/></g><g id="B"><use transform="matrix(0.06172839506172839,0,0,0.06172839506172839,0,0)" xlink:href="#T"/><use transform="matrix(0.06172839506172839,0,0,0.06172839506172839,11.11111111111111,0)" xlink:href="#Q"/><use transform="matrix(0.06172839506172839,0,0,0.06172839506172839,23.45679012345679,0)" xlink:href="#U"/><use transform="matrix(0.06172839506172839,0,0,0.06172839506172839,35.80246913580247,0)" xlink:href="#V"/><use transform="matrix(0.06172839506172839,0,0,0.06172839506172839,41.97530864197531,0)" xlink:href="#W"/><use transform="matrix(0.06172839506172839,0,0,0.06172839506172839,53.08641975308642,0)" xlink:href="#X"/><use transform="matrix(0.06172839506172839,0,0,0.06172839506172839,65.4320987654321,0)" xlink:href="#O"/><use transform="matrix(0.06172839506172839,0,0,0.06172839506172839,70.30864197530865,0)" xlink:href="#Y"/><path fill="#333" d="M-1.1 1.54h84.87v1.63H-1.1z"/></g><g id="C"><use transform="matrix(0.06172839506172839,0,0,0.06172839506172839,0,0)" xlink:href="#Z"/><use transform="matrix(0.06172839506172839,0,0,0.06172839506172839,18.456790123456788,0)" xlink:href="#Y"/><use transform="matrix(0.06172839506172839,0,0,0.06172839506172839,30.80246913580247,0)" xlink:href="#ae"/><use transform="matrix(0.06172839506172839,0,0,0.06172839506172839,43.148148148148145,0)" xlink:href="#Q"/><use transform="matrix(0.06172839506172839,0,0,0.06172839506172839,55.49382716049382,0)" xlink:href="#O"/><use transform="matrix(0.06172839506172839,0,0,0.06172839506172839,60.37037037037037,0)" xlink:href="#Y"/><path fill="#333" d="M-1.1 1.54h74.93v1.63H-1.1z"/></g><g id="D"><use transform="matrix(0.06172839506172839,0,0,0.06172839506172839,0,0)" xlink:href="#W"/><use transform="matrix(0.06172839506172839,0,0,0.06172839506172839,11.11111111111111,0)" xlink:href="#ac"/><use transform="matrix(0.06172839506172839,0,0,0.06172839506172839,23.45679012345679,0)" xlink:href="#S"/><use transform="matrix(0.06172839506172839,0,0,0.06172839506172839,29.62962962962963,0)" xlink:href="#Q"/><use transform="matrix(0.06172839506172839,0,0,0.06172839506172839,41.97530864197531,0)" xlink:href="#ao"/><use transform="matrix(0.06172839506172839,0,0,0.06172839506172839,54.32098765432099,0)" xlink:href="#Y"/><use transform="matrix(0.06172839506172839,0,0,0.06172839506172839,66.66666666666667,0)" xlink:href="#ab"/><use transform="matrix(0.06172839506172839,0,0,0.06172839506172839,74.01234567901236,0)" xlink:href="#P"/><use transform="matrix(0.06172839506172839,0,0,0.06172839506172839,78.8888888888889,0)" xlink:href="#ac"/></g><g id="E"><use transform="matrix(0.06172839506172839,0,0,0.06172839506172839,0,0)" xlink:href="#Z"/><use transform="matrix(0.06172839506172839,0,0,0.06172839506172839,18.456790123456788,0)" xlink:href="#ac"/><use transform="matrix(0.06172839506172839,0,0,0.06172839506172839,30.80246913580247,0)" xlink:href="#ab"/><use transform="matrix(0.06172839506172839,0,0,0.06172839506172839,38.148148148148145,0)" xlink:href="#W"/><use transform="matrix(0.06172839506172839,0,0,0.06172839506172839,49.25925925925925,0)" xlink:href="#ac"/></g><g id="F"><use transform="matrix(0.06172839506172839,0,0,0.06172839506172839,0,0)" xlink:href="#Z"/><use transform="matrix(0.06172839506172839,0,0,0.06172839506172839,18.456790123456788,0)" xlink:href="#Y"/><use transform="matrix(0.06172839506172839,0,0,0.06172839506172839,30.80246913580247,0)" xlink:href="#ae"/><use transform="matrix(0.06172839506172839,0,0,0.06172839506172839,43.148148148148145,0)" xlink:href="#Q"/><use transform="matrix(0.06172839506172839,0,0,0.06172839506172839,55.49382716049382,0)" xlink:href="#O"/><use transform="matrix(0.06172839506172839,0,0,0.06172839506172839,60.37037037037037,0)" xlink:href="#Y"/></g><g id="G"><use transform="matrix(0.06172839506172839,0,0,0.06172839506172839,0,0)" xlink:href="#Z"/><use transform="matrix(0.06172839506172839,0,0,0.06172839506172839,18.456790123456788,0)" xlink:href="#ac"/><use transform="matrix(0.06172839506172839,0,0,0.06172839506172839,30.80246913580247,0)" xlink:href="#ab"/><use transform="matrix(0.06172839506172839,0,0,0.06172839506172839,38.148148148148145,0)" xlink:href="#W"/><use transform="matrix(0.06172839506172839,0,0,0.06172839506172839,49.25925925925925,0)" xlink:href="#ac"/><path fill="#333" d="M-1.1 1.54H62.7v1.63H-1.1z"/></g><g id="H"><use transform="matrix(0.06172839506172839,0,0,0.06172839506172839,0,0)" xlink:href="#ae"/><use transform="matrix(0.06172839506172839,0,0,0.06172839506172839,12.345679012345679,0)" xlink:href="#Q"/><use transform="matrix(0.06172839506172839,0,0,0.06172839506172839,24.691358024691358,0)" xlink:href="#al"/><use transform="matrix(0.06172839506172839,0,0,0.06172839506172839,30.864197530864196,0)" xlink:href="#P"/><use transform="matrix(0.06172839506172839,0,0,0.06172839506172839,35.74074074074074,0)" xlink:href="#R"/><use transform="matrix(0.06172839506172839,0,0,0.06172839506172839,48.08641975308642,0)" xlink:href="#P"/><use transform="matrix(0.06172839506172839,0,0,0.06172839506172839,52.96296296296296,0)" xlink:href="#ae"/><use transform="matrix(0.06172839506172839,0,0,0.06172839506172839,65.30864197530865,0)" xlink:href="#Y"/></g><g id="I"><use transform="matrix(0.06172839506172839,0,0,0.06172839506172839,0,0)" xlink:href="#ad"/><use transform="matrix(0.06172839506172839,0,0,0.06172839506172839,12.345679012345679,0)" xlink:href="#Y"/><use transform="matrix(0.06172839506172839,0,0,0.06172839506172839,24.691358024691358,0)" xlink:href="#ab"/></g><g id="J"><use transform="matrix(0.06172839506172839,0,0,0.06172839506172839,0,0)" xlink:href="#as"/><use transform="matrix(0.06172839506172839,0,0,0.06172839506172839,12.345679012345679,0)" xlink:href="#X"/><use transform="matrix(0.06172839506172839,0,0,0.06172839506172839,24.691358024691358,0)" xlink:href="#Q"/></g><g id="K"><use transform="matrix(0.06172839506172839,0,0,0.06172839506172839,0,0)" xlink:href="#S"/><use transform="matrix(0.06172839506172839,0,0,0.06172839506172839,6.172839506172839,0)" xlink:href="#P"/><use transform="matrix(0.06172839506172839,0,0,0.06172839506172839,11.049382716049383,0)" xlink:href="#Q"/><use transform="matrix(0.06172839506172839,0,0,0.06172839506172839,23.395061728395063,0)" xlink:href="#R"/><use transform="matrix(0.06172839506172839,0,0,0.06172839506172839,35.74074074074074,0)" xlink:href="#Q"/></g><g id="L"><use transform="matrix(0.06172839506172839,0,0,0.06172839506172839,0,0)" xlink:href="#al"/><use transform="matrix(0.06172839506172839,0,0,0.06172839506172839,6.172839506172839,0)" xlink:href="#ac"/><use transform="matrix(0.06172839506172839,0,0,0.06172839506172839,18.51851851851852,0)" xlink:href="#aa"/><use transform="matrix(0.06172839506172839,0,0,0.06172839506172839,30.864197530864196,0)" xlink:href="#ab"/><use transform="matrix(0.06172839506172839,0,0,0.06172839506172839,38.20987654320987,0)" xlink:href="#P"/><use transform="matrix(0.06172839506172839,0,0,0.06172839506172839,43.08641975308642,0)" xlink:href="#W"/><use transform="matrix(0.06172839506172839,0,0,0.06172839506172839,54.19753086419753,0)" xlink:href="#ac"/><use transform="matrix(0.06172839506172839,0,0,0.06172839506172839,66.54320987654322,0)" xlink:href="#ae"/><use transform="matrix(0.06172839506172839,0,0,0.06172839506172839,78.8888888888889,0)" xlink:href="#Y"/></g><path fill="#333" d="M169-182c-1-43-94-46-97-3 18 66 151 10 154 114 3 95-165 93-204 36-6-8-10-19-12-30l50-8c3 46 112 56 116 5-17-69-150-10-154-114-4-87 153-88 188-35 5 8 8 18 10 28" id="at"/><g id="M"><use transform="matrix(0.04938271604938272,0,0,0.04938271604938272,0,0)" xlink:href="#at"/><use transform="matrix(0.04938271604938272,0,0,0.04938271604938272,11.851851851851853,0)" xlink:href="#aq"/></g></defs></g></svg>